<svg width="411" height="428" viewBox="0 0 411 428" fill="none" xmlns="http://www.w3.org/2000/svg">
<path d="M150.405 100.608C150.567 124.076 148.051 147.205 139.92 169.385C131.821 191.488 120.849 212.217 108.768 232.355C103.587 240.991 98.085 249.442 92.5743 257.87C85.6747 268.418 81.7334 279.801 82.3828 292.536C82.7931 300.626 85.4763 307.694 91.2891 313.627C100.277 322.797 110.937 327.777 123.807 327.809C126.473 327.813 128.493 328.866 129.656 331.261C130.685 333.381 130.522 335.527 129.165 337.475C127.749 339.504 125.697 340.159 123.275 340.132C107.343 339.947 94.0625 333.842 82.8247 322.616C73.1517 312.954 69.6253 301.182 70.0311 287.918C70.4505 274.22 75.0502 261.906 82.6308 250.594C99.749 225.065 114.996 198.502 126.563 169.936C133.323 153.238 136.506 135.753 137.792 117.88C138.802 103.812 138.793 89.7436 136.98 75.7252C136.795 74.3107 136.502 72.9097 136.245 71.5043C135.613 68.0652 137.656 64.8837 140.971 64.1471C144.168 63.4376 147.613 65.3492 148.154 68.7114C149.129 74.7174 149.882 80.7776 150.333 86.8423C150.671 91.4067 150.4 96.0162 150.4 100.608H150.405Z" fill="white"/>
<path d="M288.717 340.11C288.041 340.11 287.364 340.141 286.688 340.105C283.26 339.906 280.758 337.294 280.758 333.95C280.758 330.556 283.206 327.953 286.688 327.849C292.122 327.686 297.47 327.104 302.602 325.174C311.161 321.956 317.988 316.398 323.422 309.181C327.102 304.291 328.383 298.434 328.654 292.401C329.226 279.67 325.38 268.232 318.331 257.775C304.365 237.046 291.838 215.485 281.024 192.93C272.027 174.171 265.168 154.765 262.535 134.009C259.869 113.008 259.225 92.0077 262.314 70.9891C262.435 70.1711 262.593 69.3532 262.823 68.5623C263.77 65.304 267.004 63.3969 270.183 64.1878C273.407 64.9922 275.279 68.0833 274.805 71.432C270.336 102.827 272.041 133.814 282.295 163.93C289.542 185.215 300.275 204.942 311.752 224.207C317.213 233.376 323.044 242.329 328.861 251.281C337.438 264.482 341.997 278.762 340.816 294.62C340.054 304.842 336.496 313.849 329.321 321.414C318.236 333.105 304.933 339.726 288.717 340.119V340.11Z" fill="white"/>
<path d="M135.794 300.264C143.217 300.133 149.918 302.596 155.884 306.672C161.449 310.473 166.621 314.861 171.861 319.123C176.001 322.485 179.757 326.353 184.064 329.463C197.917 339.468 213.11 339.468 226.954 329.458C231.261 326.344 235.184 322.67 239.117 319.068C245.349 313.361 251.775 307.929 259.423 304.209C274.02 297.119 287.581 299.898 300.338 308.882C303.544 311.142 304.045 314.988 301.903 317.794C299.711 320.664 296.108 320.98 292.897 318.68C283.378 311.86 272.059 309.75 261.051 317.464C256.023 320.989 251.261 324.939 246.661 329.02C240.916 334.117 235.356 339.427 228.533 343.079C212.51 351.656 196.465 351.493 180.966 342.066C175.117 338.51 170.102 333.575 164.705 329.273C159.541 325.156 154.635 320.659 149.16 317.012C138.563 309.949 128.092 311.675 118.103 318.693C116.028 320.149 113.918 320.732 111.555 319.706C109.381 318.761 108.141 317.039 107.898 314.671C107.632 312.095 108.809 310.193 110.82 308.701C118.238 303.184 126.581 300.445 135.785 300.26L135.794 300.264Z" fill="white"/>
</svg>
